<?xml version="1.0" encoding="utf-8"?>
<!-- Generator: Adobe Illustrator 22.0.1, SVG Export Plug-In . SVG Version: 6.00 Build 0)  -->
<svg version="1.1" id="Layer_1" xmlns="http://www.w3.org/2000/svg" xmlns:xlink="http://www.w3.org/1999/xlink" x="0px" y="0px"
	 viewBox="0 0 216 216" style="enable-background:new 0 0 216 216;" xml:space="preserve">
<style type="text/css">
	.st0{fill:#FFFFFF;}
	.st1{fill:#382D45;}
	.st2{fill:#74C8B3;}
</style>
<g>
	<g>
		<path class="st0" d="M205.3,194.8c0,0-3.1-3.7-3.1-3.7l0.5-0.4c0.3-0.2,0.5-0.4,0.8-0.6c2.5-2,4.1-5,4.4-8.3
			c0.3-3.2-0.6-6.4-2.6-8.9c-0.1-0.1-0.1-0.1-0.2-0.2c-2.3-2.7-5.7-4.2-9.2-4.2c-1.5,0-3,0.3-4.4,0.8v-1.9c0-6.7-5.5-12.1-12.2-12.1
			c-6.7,0-12.1,5.4-12.1,12.1v2.1c-1.8-0.5-3.7-0.8-5.6-0.8c-2.8,0-5.6,0.6-8.1,1.7c-2.5-1.1-5.3-1.7-8.1-1.7
			c-5.3,0-10.1,2-13.7,5.3c-4.2-3.5-9.7-5.4-15-5.4c-2.9,0-5.7,0.5-8.2,1.5v-2.8c0-6.7-5.5-12.1-12.2-12.1
			c-6.7,0-12.1,5.4-12.1,12.1v1.2c-5.6,0.3-10.6,2.6-14.4,6.2c-4.1-3.8-9.6-6.1-15.6-6.1c-5.5,0-10.6,2-14.6,5.2
			c-4.1-3.3-9.2-5.2-14.5-5.2c-12.6,0-22.9,10.3-22.9,23s10.3,23,22.9,23c5.4,0,10.6-1.9,14.6-5.2c4,3.2,9,5.2,14.5,5.2
			c6.1,0,11.6-2.4,15.7-6.2c4.1,3.8,9.6,6.1,15.6,6.1c6,0,11.4-2.3,15.5-6.1c4.1,3.8,9.6,6.2,15.7,6.2h0.3c2.2,0,6.7,0,12-3.1
			c2.2,2,5.1,3.2,8.2,3.2c3.1,0,6-1.2,8.1-3.1c2.2,1.9,5,3.1,8.1,3.1c3.1,0,6-1.2,8.1-3.1c2.2,2,5,3.1,8.1,3.1
			c1.8,0,3.5-0.4,5.1-1.1c1.4,0.6,2.9,0.9,4.6,0.9c3.2,0,6.1-1.2,8.3-3.3c2.2,2.1,5.1,3.3,8.3,3.3c2.9,0,5.6-1,7.8-2.9
			c2.4-2,3.9-4.9,4.3-8.1C208.3,200.5,207.3,197.4,205.3,194.8z"/>
		<g>
			<path class="st1" d="M11.5,191.8c0-7.5,6-13.5,13.4-13.5c4.8,0,9.3,2.6,11.7,6.7c0.8,1.3,0.3,2.9-1,3.7c-1.3,0.7-2.9,0.3-3.7-1
				c-1.5-2.5-4.1-4.1-7.1-4.1c-4.5,0-8.2,3.7-8.2,8.2c0,4.5,3.7,8.2,8.2,8.2c2.8,0,5.4-1.4,6.9-3.8c0.8-1.2,2.5-1.6,3.7-0.8
				c1.2,0.8,1.6,2.5,0.8,3.7c-2.5,3.9-6.7,6.2-11.3,6.2C17.6,205.3,11.5,199.3,11.5,191.8z"/>
			<path class="st1" d="M40.6,191.8c0-7.5,6.1-13.5,13.5-13.5c7.5,0,13.5,6,13.5,13.5c0,7.4-6,13.5-13.5,13.5
				C46.7,205.3,40.6,199.2,40.6,191.8z M45.9,191.8c0,4.5,3.7,8.2,8.2,8.2s8.2-3.7,8.2-8.2c0-4.5-3.7-8.2-8.2-8.2
				S45.9,187.3,45.9,191.8z"/>
			<path class="st1" d="M93.6,180.9v-13.4c0-1.5,1.2-2.6,2.6-2.6c1.5,0,2.7,1.2,2.7,2.6v24.1v0.1c0,7.4-6.1,13.5-13.5,13.5
				c-7.5,0-13.5-6.1-13.5-13.5c0-7.5,6-13.5,13.5-13.5C88.5,178.2,91.3,179.2,93.6,180.9z M93.6,191.7L93.6,191.7
				c0-4.5-3.7-8.2-8.2-8.2c-4.5,0-8.2,3.7-8.2,8.2c0,4.5,3.7,8.2,8.2,8.2C89.9,199.8,93.6,196.2,93.6,191.7z"/>
			<path class="st1" d="M130.1,191.8c0,1.5-1.2,2.6-2.7,2.6h-18.6c1.1,3.2,4.1,5.5,7.7,5.5c1.2,0,3.4-0.1,6-1.8
				c1.2-0.8,2.9-0.1,3.5,1.2c0.6,1.3-0.1,2.7-1.3,3.5c-3.5,2.4-6.3,2.3-8.3,2.3c-7.5,0-13.5-6.1-13.5-13.5c0-7.5,6-13.5,13.5-13.5
				C123.1,178.3,130.1,183,130.1,191.8z M108.8,189.1h15.5c-1.1-3.8-4.6-5.5-7.8-5.5C113,183.6,110,185.9,108.8,189.1z"/>
			<path class="st2" d="M172.3,189.4c0.1,0.1,0.1,0.2,0.1,0.3v13.1c0,1.5-1.2,2.7-2.7,2.7c-1.5,0-2.6-1.2-2.6-2.7v-13.1
				c0-0.1,0-0.2,0-0.3c0-0.1,0-0.1,0-0.2c0-3-2.5-5.4-5.5-5.4c-3,0-5.5,2.4-5.5,5.4v13.6c0,1.5-1.2,2.7-2.6,2.7
				c-1.5,0-2.7-1.2-2.7-2.7v-13.6c0-3-2.4-5.4-5.4-5.4c-3,0-5.5,2.4-5.5,5.4v13.6c0,1.5-1.2,2.7-2.6,2.7c-1.5,0-2.7-1.2-2.7-2.7
				v-13.6c0-5.9,4.8-10.8,10.8-10.8c3.2,0,6.1,1.4,8.1,3.7c2-2.3,4.9-3.7,8.1-3.7c6,0,10.8,4.8,10.8,10.8
				C172.3,189.3,172.3,189.3,172.3,189.4z"/>
			<path class="st2" d="M197.5,204.5c-0.5,0.4-1.1,0.6-1.7,0.6c-0.8,0-1.6-0.3-2-1l-10.2-12.3l-1.7,1.1v9.4c0,1.5-1.2,2.7-2.7,2.7
				c-1.5,0-2.6-1.2-2.6-2.7v-10.8v-24c0-1.5,1.2-2.6,2.6-2.6c1.5,0,2.7,1.2,2.7,2.6v19.1l12.2-8c1.1-0.9,2.8-0.8,3.8,0.3
				c0.9,1.1,0.8,2.9-0.4,3.8l-9.4,6.2l9.8,11.8C198.8,201.9,198.7,203.6,197.5,204.5z"/>
		</g>
	</g>
	<g>
		<g>
			<path class="st0" d="M193.7,47c-0.3-0.3-0.5-0.7-0.8-1c-7.5-7.8-16.9-11.7-28.2-11.7c-0.7,0-1.4,0-2.1,0c-0.8,0-1.6,0.1-2.4,0.1
				c-1.3,0-1.6-0.1-1.6-0.1c-0.3-0.1-0.7-0.2-0.9-0.3c0,0-17.7-10-26.6-15.2c-2.8-1.6-8-4.7-8-4.7c-0.2-0.1-0.4-0.5-0.4-0.8l-3-9.8
				c-0.2-0.2-0.4-0.5-0.6-0.7c-0.2-0.1-0.5-0.3-0.8-0.5c0,0-3.2-1.7-5.3-1.7c-1.6,0-4.1,1-4.1,1c-0.3,0.1-0.7,0.3-0.9,0.4
				c0,0-13.2,7.3-13.2,7.3c-3.5,2-7.1,4.1-10.6,6.1c-8.5,4.9-17.3,9.9-25.9,15.2c-4.2,2.6-7.8,3.7-11.8,3.7c-0.5,0-1,0-1.5-0.1
				c-0.8-0.1-1.6-0.1-2.4-0.1c-9.3,0-17.7,3.6-25,10.8c-0.5,0.5-0.9,1-1.2,1.5c-7.6,11.4-9.6,23.6-5.7,34.4
				c3.6,9.7,22.1,20.4,22.1,20.4c0.2,0.1,0.4,0.5,0.4,0.7c0,0,0,7.5,0,11.4c-0.1,12,6.7,18,12.5,21c4.3,2.2,8.4,4.6,12.8,7.3
				c1.9,1.2,3.9,2.3,5.8,3.4c0,0,0.1,0,0.1,0.1c2.8,1.6,5.5,3.1,8.3,4.7c6.5,3.6,13.2,7.4,19.6,11.1c4.1,2.4,8.3,3.6,12.4,3.6
				c4.2,0,8.3-1.2,12.2-3.6c3.5-2.1,7.1-4.1,10.9-6.2c1.7-0.9,3.3-1.8,5-2.8c0,0,0.1,0,0.1-0.1c3-1.7,6-3.5,9-5.2
				c7.1-4.2,14.5-8.5,21.8-12.6c7.5-4.2,11.7-10.4,12.5-18.3c0-0.3,0-0.7,0-1c0-1.6,0-3.2-0.1-4.8c0-2.9-0.1-8-0.1-8
				c0-0.3,0.2-0.6,0.4-0.7c0,0,13.3-6.6,18.6-13.5c0.3-0.4,0.6-0.8,0.8-1.3C203.6,73.2,202.7,59.5,193.7,47z"/>
		</g>
		<g>
			<g>
				<g>
					<path class="st1" d="M186,52.6c6.9,9.4,7.6,19.3,2.1,29.6c-4.7,6.1-10.6,10.3-18.5,11.3c-1,0.1-2.4,2.2-2.4,3.4
						c-0.2,6.1,0,12.1,0,18.2c-0.5,5.1-3.3,8.5-7.7,11c-10.4,5.8-20.6,11.9-30.9,17.9c-5.4,3-10.9,6-16.2,9.2
						c-5.1,3.1-9.8,2.9-14.9-0.1c-9.3-5.5-18.7-10.6-28.1-15.9c-6.4-3.7-12.6-7.6-19.1-10.9c-5.3-2.7-7.3-6.8-7.3-12.4
						c0-6.4,0-12.7,0-19c-1.8-0.5-3.2-1-4.6-1.4c-19.6-5.5-25.7-23.6-13.9-41.2c5.6-5.5,12.2-8.6,20.1-8.1c7,0.5,12.9-1.4,18.9-5.1
						c11.9-7.3,24.1-14.1,36.2-21.1c4.5-2.5,9-5,13.5-7.4c0.2,0.2,0.4,0.3,0.6,0.5c-1.4,2-2.8,3.9-4.5,6.4c2.6,1.5,5.1,2.9,7.5,4.2
						c12.3,7.1,24.5,14.4,37,21.2c2.5,1.4,6.2,1.3,9.3,1.1C172,43.5,179.7,46.1,186,52.6z M128.3,113.2c0.1-0.8,0.3-1.5,0.2-2.3
						c-0.6-4.4,0.6-6.4,5.6-7.4c9.5-1.9,15.7-8.1,18.1-17.7c3.9-16-7.2-30.7-23.8-30.9c-16.4-0.3-32.8-0.2-49.2,0
						c-16.9,0.2-27.9,14.4-24.3,31c2.3,9,7.9,15.4,16.9,17.3c5.9,1.3,7.9,3.7,7.1,9.2c0,0.3,0.1,0.6,0.2,0.9
						c-2.2,19.1,12.5,33.3,30.4,29.2C122.1,139.6,129.4,128.1,128.3,113.2z"/>
					<g>
						<circle class="st1" cx="80.3" cy="87.5" r="6.5"/>
						<circle class="st1" cx="129.8" cy="87.5" r="6.5"/>
					</g>
					<g>
						<path class="st1" d="M105.6,113.2c-0.2,0.1-0.6,0.1-0.9,0l-10.3-6c-0.2-0.1-0.4,0-0.4,0.2v3.6c0,0.3,0.2,0.6,0.4,0.8l10.3,6
							c0.2,0.1,0.6,0.1,0.9,0l10.3-6c0.2-0.1,0.4-0.5,0.4-0.8v-3.6c0-0.3-0.2-0.4-0.4-0.2L105.6,113.2z"/>
					</g>
				</g>
			</g>
		</g>
	</g>
</g>
</svg>
